<?xml version="1.0" encoding="utf-8"?>
<!-- Generator: Adobe Illustrator 27.5.0, SVG Export Plug-In . SVG Version: 6.00 Build 0)  -->
<svg version="1.1" xmlns="http://www.w3.org/2000/svg" xmlns:xlink="http://www.w3.org/1999/xlink" x="0px" y="0px"
	 viewBox="0 0 750 500" style="enable-background:new 0 0 750 500;" xml:space="preserve">
<g id="Background_Simple">
	<g>
		<path style="fill:#92E3A9;" d="M727.75,234.087c-0.828-38.978-23.513-76.605-58.065-105.651
			c-20.213-16.992-44.536-31.878-71.09-43.469c-27.558-12.03-57.519-25.502-90.771-27.57c-8.206-0.51-16.622-0.266-24.721,1.364
			c-31.009,6.24,30.352,28.48,38.372,31.732C435.71,65.731,346.936,40.572,253.184,42.945c-18.077,0.458-36.829,2.1-52.722,8.873
			C184.57,58.59,172.27,71.652,174.637,84.6c1.956,10.703,12.664,22.66,2.621,31.025c-2.872,2.392-6.943,3.806-10.94,5.034
			c-20.509,6.3-42.649,9.604-62.077,17.618c-30.086,12.411-50.618,35.214-60.135,59.207c-9.516,23.993-9.06,49.204-5.324,73.61
			c7.03,45.933,26.147,91.501,64.835,127.222c55.261,51.023,145.859,77.012,236.607,81.295
			c109.809,5.182,228.864-21.962,301.475-84.789c10.769-9.318,20.644-19.641,24.561-31.327c3.917-11.686,0.814-25.002-11.241-32.676
			c-3.249-2.068-7.43-4.261-7.078-7.471c0.477-4.343,8.206-5.811,14.097-6.723c38.652-5.982,60.758-37.633,64.745-66.097
			C727.553,245.034,727.865,239.547,727.75,234.087z"/>
		<path style="opacity:0.7;fill:#FFFFFF;" d="M727.75,234.087c-0.828-38.978-23.513-76.605-58.065-105.651
			c-20.213-16.992-44.536-31.878-71.09-43.469c-27.558-12.03-57.519-25.502-90.771-27.57c-8.206-0.51-16.622-0.266-24.721,1.364
			c-31.009,6.24,30.352,28.48,38.372,31.732C435.71,65.731,346.936,40.572,253.184,42.945c-18.077,0.458-36.829,2.1-52.722,8.873
			C184.57,58.59,172.27,71.652,174.637,84.6c1.956,10.703,12.664,22.66,2.621,31.025c-2.872,2.392-6.943,3.806-10.94,5.034
			c-20.509,6.3-42.649,9.604-62.077,17.618c-30.086,12.411-50.618,35.214-60.135,59.207c-9.516,23.993-9.06,49.204-5.324,73.61
			c7.03,45.933,26.147,91.501,64.835,127.222c55.261,51.023,145.859,77.012,236.607,81.295
			c109.809,5.182,228.864-21.962,301.475-84.789c10.769-9.318,20.644-19.641,24.561-31.327c3.917-11.686,0.814-25.002-11.241-32.676
			c-3.249-2.068-7.43-4.261-7.078-7.471c0.477-4.343,8.206-5.811,14.097-6.723c38.652-5.982,60.758-37.633,64.745-66.097
			C727.553,245.034,727.865,239.547,727.75,234.087z"/>
	</g>
</g>
<g id="Floor">
	
		<line style="fill:none;stroke:#263238;stroke-linecap:round;stroke-linejoin:round;stroke-miterlimit:10;" x1="28.775" y1="395.8" x2="740.998" y2="395.8"/>
</g>
<g id="Cat_4">
	<g>
		<path style="fill:#92E3A9;stroke:#263238;stroke-linecap:round;stroke-linejoin:round;stroke-miterlimit:10;" d="M632.782,179.531
			c0,0,5.678-24.383,25.051-30.062c19.373-5.678,33.068,10.021,36.408,23.047c3.34,13.027-8.684,26.721-18.037,16.033
			c-9.353-10.689-11.023-30.062-20.041-28.058c-9.018,2.004-15.031,12.025-18.037,20.709
			C635.12,189.886,632.782,179.531,632.782,179.531z"/>
		<path style="fill:#FFFFFF;stroke:#263238;stroke-linecap:round;stroke-linejoin:round;stroke-miterlimit:10;" d="M676.204,188.55
			c9.352,10.689,21.377-3.006,18.037-16.033c-1.713-6.682-6.157-14.06-12.687-18.902c-7.577,3.049-12.835,9.716-16.01,15.042
			C668.431,174.732,671.232,182.868,676.204,188.55z"/>
		<path style="fill:#263238;stroke:#263238;stroke-linecap:round;stroke-linejoin:round;stroke-miterlimit:10;" d="M608.399,245.787
			c0,0,3.34,3.34,5.01,4.342c1.67,1.002,6.012,1.002,6.012,1.002s-4.676,8.684-6.68,11.691c-2.004,3.006-7.682,2.004-6.012,4.676
			c1.67,2.672,8.684,0.668,10.021,0c1.336-0.668,8.602-10.915,11.482-14.977c2.88-4.062,5.219-11.077-0.46-12.413
			C622.093,238.772,608.399,245.787,608.399,245.787z"/>
		<path style="fill:#92E3A9;stroke:#263238;stroke-linecap:round;stroke-linejoin:round;stroke-miterlimit:10;" d="M590.062,139.585
			l-30.829-0.294c0,0-12.625-10.864-17.617-13.8c-4.991-2.936-8.221-4.111-8.515,5.285c-0.294,9.396,1.174,20.553,4.111,23.489
			s4.991,4.991,4.991,4.991s-5.578,11.451-4.991,21.14c0.587,9.689,7.927,11.451,7.927,11.451s5.579,38.169,8.808,48.445
			c3.23,10.276,5.579,22.902,5.579,22.902s-3.523,0.587-3.817,4.111c-0.294,3.523,5.872,4.698,9.102,1.174
			c3.23-3.523,6.459-23.782,6.459-23.782l15.855,0.587c0,0,1.174,21.433,3.817,24.076c2.642,2.642,9.983,2.349,10.276,0.294
			c0.294-2.055-1.174-3.523-1.174-3.523l8.515-19.672l15.855-3.523c0,0,1.174,4.111,3.817,6.459
			c2.642,2.349,6.166,2.643,6.166,2.643s-0.881,9.983-3.23,11.157c-2.349,1.174-5.578,1.762-4.991,3.817
			c0.587,2.055,9.396,2.055,12.332,0.294c2.936-1.762,5.578-11.157,6.166-16.149c0.587-4.991-0.294-6.753-0.294-6.753
			s9.396-12.625,9.396-31.71s-12.625-33.765-24.663-36.114c-12.038-2.349-16.442,2.349-16.442,2.349s2.055-7.34,0.294-11.451
			c-1.762-4.111-3.817-10.276-3.817-10.276s7.927-7.34,10.276-17.323c1.951-8.293,2.936-20.259-0.881-19.085
			C614.725,121.969,596.521,129.603,590.062,139.585z"/>
		<path style="fill:#D6D6D6;stroke:#263238;stroke-linecap:round;stroke-linejoin:round;stroke-miterlimit:10;" d="M552.48,142.228
			c-0.79-3.687-13.384-15.398-17.456-18.41c-1.123,0.828-1.796,2.911-1.922,6.959c-0.294,9.396,1.174,20.553,4.111,23.489
			s4.991,4.991,4.991,4.991S553.361,146.338,552.48,142.228z"/>
		<path style="fill:#D6D6D6;stroke:#263238;stroke-linecap:round;stroke-linejoin:round;stroke-miterlimit:10;" d="M601.806,133.126
			c-5.285,5.872-6.459,11.744-5.578,13.212c0.881,1.468,12.919,10.863,12.919,10.863s7.927-7.34,10.276-17.323
			c1.951-8.293,2.936-20.259-0.881-19.085C618.542,120.794,607.091,127.254,601.806,133.126z"/>
		<g>
			<path style="fill:#FFFFFF;stroke:#263238;stroke-linecap:round;stroke-linejoin:round;stroke-miterlimit:10;" d="
				M577.888,168.326c0,0-4.425-0.277-5.099,1.496s2.681,3.352,4.347,2.972c1.666-0.381,4.112-1.479,3.943-3.166
				C580.909,167.94,577.888,168.326,577.888,168.326z"/>
			<path style="fill:none;stroke:#263238;stroke-linecap:round;stroke-linejoin:round;stroke-miterlimit:10;" d="M565.975,173.332
				c0,0,0.691,5.228,4.363,5.521c3.672,0.293,6.275-2.609,6.798-6.06c0,0,3.855,4.988,6.936,4.347
				c3.081-0.641,3.898-5.69,3.913-7.181"/>
		</g>
		<path style="fill:none;stroke:#263238;stroke-width:2;stroke-linecap:round;stroke-linejoin:round;stroke-miterlimit:10;" d="
			M554.242,165.423c0,0,5.293-5.666,12.058-0.525"/>
		<path style="fill:none;stroke:#263238;stroke-width:2;stroke-linecap:round;stroke-linejoin:round;stroke-miterlimit:10;" d="
			M584.159,163.951c0,0,8.337-5.42,12.447-0.135"/>
		<path style="fill:none;stroke:#263238;stroke-linecap:round;stroke-linejoin:round;stroke-miterlimit:10;" d="M553.311,157.998
			c0,0,1.623-4.735,9.335-6.224"/>
		<path style="fill:none;stroke:#263238;stroke-linecap:round;stroke-linejoin:round;stroke-miterlimit:10;" d="M584.971,152.586
			c0,0,5.006-1.624,10.012,4.871"/>
		<path style="fill:none;stroke:#263238;stroke-linecap:round;stroke-linejoin:round;stroke-miterlimit:10;" d="M612.67,178.929
			c0,0-3.269,10.623-12.622,12.627"/>
		<path style="fill:#FFFFFF;stroke:#263238;stroke-linecap:round;stroke-linejoin:round;stroke-miterlimit:10;" d="M587.126,245.285
			c0,0,4.906-18.99-3.445-35.357c-8.35-16.367-16.367-20.041-22.379-8.016c-6.012,12.025-2.338,27.723,0,33.736
			c2.338,6.012,9.969,9.051,9.969,9.051L587.126,245.285z"/>
		<path style="fill:#FFFFFF;stroke:#263238;stroke-linecap:round;stroke-linejoin:round;stroke-miterlimit:10;" d="M608.559,246.459
			l3.513-17.493c0,0,8.685,1.002,13.027,0c4.342-1.002,8.016-2.672,10.021-8.35c2.004-5.678-0.334,7.348-3.006,13.027
			c-2.672,5.678-7.7,9.293-7.7,9.293L608.559,246.459z"/>
		
			<line style="fill:none;stroke:#263238;stroke-linecap:round;stroke-linejoin:round;stroke-miterlimit:10;" x1="547.673" y1="168.374" x2="556.894" y2="170.557"/>
		<path style="fill:none;stroke:#263238;stroke-linecap:round;stroke-linejoin:round;stroke-miterlimit:10;" d="M556.651,174.197
			c0,0-3.397,0.485-4.368,0.485"/>
		
			<line style="fill:none;stroke:#263238;stroke-linecap:round;stroke-linejoin:round;stroke-miterlimit:10;" x1="557.622" y1="177.352" x2="553.254" y2="182.204"/>
		
			<line style="fill:none;stroke:#263238;stroke-linecap:round;stroke-linejoin:round;stroke-miterlimit:10;" x1="595.232" y1="167.888" x2="602.511" y2="165.704"/>
		
			<line style="fill:none;stroke:#263238;stroke-linecap:round;stroke-linejoin:round;stroke-miterlimit:10;" x1="594.019" y1="171.771" x2="599.114" y2="172.256"/>
		
			<line style="fill:none;stroke:#263238;stroke-linecap:round;stroke-linejoin:round;stroke-miterlimit:10;" x1="591.835" y1="174.197" x2="597.901" y2="178.565"/>
	</g>
</g>
<g id="Books">
	<g>
		<g>
			<g>
				
					<rect x="494.263" y="269.028" style="fill:#FFFFFF;stroke:#263238;stroke-linecap:round;stroke-linejoin:round;stroke-miterlimit:10;" width="147.987" height="23.015"/>
				<g>
					
						<line style="fill:none;stroke:#263238;stroke-linecap:round;stroke-linejoin:round;stroke-miterlimit:10;" x1="495.791" y1="276.887" x2="501.852" y2="276.887"/>
					
						<line style="fill:none;stroke:#263238;stroke-linecap:round;stroke-linejoin:round;stroke-miterlimit:10;" x1="530.431" y1="277.874" x2="533.973" y2="277.874"/>
					
						<line style="fill:none;stroke:#263238;stroke-linecap:round;stroke-linejoin:round;stroke-miterlimit:10;" x1="495.398" y1="274.449" x2="524.526" y2="274.449"/>
					
						<line style="fill:none;stroke:#263238;stroke-linecap:round;stroke-linejoin:round;stroke-miterlimit:10;" x1="496.004" y1="286.438" x2="507.994" y2="286.438"/>
				</g>
			</g>
			<g>
				<defs>
					<path id="XMLID_1_" d="M611.866,270.073c0,0-4.178,5.605,0,21.274h69.834c0,0-6.268-10.828,0-21.274H611.866z"/>
				</defs>
				<use xlink:href="#XMLID_1_"  style="overflow:visible;fill:#FFFFFF;"/>
				<clipPath id="XMLID_00000002363701726188131470000012666640524337067700_">
					<use xlink:href="#XMLID_1_"  style="overflow:visible;"/>
				</clipPath>
				
					<path style="clip-path:url(#XMLID_00000002363701726188131470000012666640524337067700_);fill:#BABABA;stroke:#263238;stroke-linecap:round;stroke-linejoin:round;stroke-miterlimit:10;" d="
					M611.866,270.073c0,0-4.178,5.605,0,21.274h69.834c0,0-6.268-10.828,0-21.274H611.866z"/>
				
					<line style="clip-path:url(#XMLID_00000002363701726188131470000012666640524337067700_);fill:none;stroke:#263238;stroke-linecap:round;stroke-linejoin:round;stroke-miterlimit:10;" x1="610.113" y1="276.219" x2="630.708" y2="276.219"/>
				
					<line style="clip-path:url(#XMLID_00000002363701726188131470000012666640524337067700_);fill:none;stroke:#263238;stroke-linecap:round;stroke-linejoin:round;stroke-miterlimit:10;" x1="643.511" y1="277.889" x2="626.255" y2="277.889"/>
				
					<line style="clip-path:url(#XMLID_00000002363701726188131470000012666640524337067700_);fill:none;stroke:#263238;stroke-linecap:round;stroke-linejoin:round;stroke-miterlimit:10;" x1="674.307" y1="280.629" x2="630.708" y2="280.629"/>
				
					<use xlink:href="#XMLID_1_"  style="overflow:visible;fill:none;stroke:#263238;stroke-linecap:round;stroke-linejoin:round;stroke-miterlimit:10;"/>
			</g>
			<path style="fill:#FFFFFF;stroke:#263238;stroke-linecap:round;stroke-linejoin:round;stroke-miterlimit:10;" d="
				M496.004,286.438v-13.405c0-1.058,0.857-1.915,1.915-1.915h186.157c0.801,0,1.45-0.649,1.45-1.45l0,0c0-0.8-0.649-1.45-1.45-1.45
				H493.164c-1.058,0-1.915,0.857-1.915,1.915v19.203c0,1.712,1.387,3.099,3.099,3.099h189.729c0.801,0,1.45-0.649,1.45-1.449l0,0
				c0-0.801-0.649-1.449-1.45-1.449H499.103C497.392,289.537,496.004,288.149,496.004,286.438z"/>
		</g>
		<g>
			<g>
				
					<rect x="494.263" y="324.275" style="fill:#FFFFFF;stroke:#263238;stroke-linecap:round;stroke-linejoin:round;stroke-miterlimit:10;" width="147.987" height="30.294"/>
				<g>
					
						<line style="fill:none;stroke:#263238;stroke-linecap:round;stroke-linejoin:round;stroke-miterlimit:10;" x1="496.732" y1="330.11" x2="522.711" y2="330.11"/>
					
						<line style="fill:none;stroke:#263238;stroke-linecap:round;stroke-linejoin:round;stroke-miterlimit:10;" x1="531.371" y1="338.376" x2="534.914" y2="338.376"/>
					
						<line style="fill:none;stroke:#263238;stroke-linecap:round;stroke-linejoin:round;stroke-miterlimit:10;" x1="496.338" y1="338.376" x2="525.467" y2="338.376"/>
					
						<line style="fill:none;stroke:#263238;stroke-linecap:round;stroke-linejoin:round;stroke-miterlimit:10;" x1="496.945" y1="346.939" x2="508.934" y2="346.939"/>
				</g>
			</g>
			<g>
				<defs>
					<path id="XMLID_2_" d="M612.799,325.319c0,0-4.178,12.884,0,28.553h68.901c0,0-6.268-18.107,0-28.553H612.799z"/>
				</defs>
				<use xlink:href="#XMLID_2_"  style="overflow:visible;fill:#FFFFFF;"/>
				<clipPath id="XMLID_00000066478197935032030340000005288494147135338669_">
					<use xlink:href="#XMLID_2_"  style="overflow:visible;"/>
				</clipPath>
				
					<path style="clip-path:url(#XMLID_00000066478197935032030340000005288494147135338669_);fill:#BABABA;stroke:#263238;stroke-linecap:round;stroke-linejoin:round;stroke-miterlimit:10;" d="
					M612.799,325.319c0,0-4.178,12.884,0,28.553h68.901c0,0-6.268-18.107,0-28.553H612.799z"/>
				
					<line style="clip-path:url(#XMLID_00000066478197935032030340000005288494147135338669_);fill:none;stroke:#263238;stroke-linecap:round;stroke-linejoin:round;stroke-miterlimit:10;" x1="679.039" y1="339.632" x2="649.077" y2="339.632"/>
				
					<line style="clip-path:url(#XMLID_00000066478197935032030340000005288494147135338669_);fill:none;stroke:#263238;stroke-linecap:round;stroke-linejoin:round;stroke-miterlimit:10;" x1="659.375" y1="337.128" x2="635.439" y2="337.128"/>
				
					<line style="clip-path:url(#XMLID_00000066478197935032030340000005288494147135338669_);fill:none;stroke:#263238;stroke-linecap:round;stroke-linejoin:round;stroke-miterlimit:10;" x1="651.025" y1="341.859" x2="658.818" y2="341.859"/>
				
					<line style="clip-path:url(#XMLID_00000066478197935032030340000005288494147135338669_);fill:none;stroke:#263238;stroke-linecap:round;stroke-linejoin:round;stroke-miterlimit:10;" x1="620.41" y1="330.448" x2="636.274" y2="330.448"/>
				
					<line style="clip-path:url(#XMLID_00000066478197935032030340000005288494147135338669_);fill:none;stroke:#263238;stroke-linecap:round;stroke-linejoin:round;stroke-miterlimit:10;" x1="627.647" y1="336.849" x2="632.656" y2="336.849"/>
				
					<use xlink:href="#XMLID_2_"  style="overflow:visible;fill:none;stroke:#263238;stroke-linecap:round;stroke-linejoin:round;stroke-miterlimit:10;"/>
			</g>
			<path style="fill:#263238;stroke:#263238;stroke-linecap:round;stroke-linejoin:round;stroke-miterlimit:10;" d="
				M496.004,348.963v-20.683c0-1.058,0.857-1.915,1.915-1.915h186.157c0.801,0,1.45-0.649,1.45-1.45l0,0
				c0-0.8-0.649-1.449-1.45-1.449H493.164c-1.058,0-1.915,0.857-1.915,1.915v26.482c0,1.712,1.387,3.099,3.099,3.099h189.729
				c0.801,0,1.45-0.649,1.45-1.449l0,0c0-0.801-0.649-1.45-1.45-1.45H499.103C497.392,352.062,496.004,350.674,496.004,348.963z"/>
		</g>
		<g>
			<g>
				<path style="fill:#FFFFFF;stroke:#263238;stroke-linecap:round;stroke-linejoin:round;stroke-miterlimit:10;" d="
					M496.148,372.821c1.035-3.478,4.843-7.253,0.137-16.46h180.5v16.46H496.148z"/>
				<g>
					
						<line style="fill:none;stroke:#263238;stroke-linecap:round;stroke-linejoin:round;stroke-miterlimit:10;" x1="563.185" y1="360.008" x2="559.642" y2="360.008"/>
					
						<line style="fill:none;stroke:#263238;stroke-linecap:round;stroke-linejoin:round;stroke-miterlimit:10;" x1="598.217" y1="360.008" x2="569.089" y2="360.008"/>
					
						<line style="fill:none;stroke:#263238;stroke-linecap:round;stroke-linejoin:round;stroke-miterlimit:10;" x1="597.611" y1="368.572" x2="585.621" y2="368.572"/>
				</g>
			</g>
			<path style="fill:#FFFFFF;stroke:#263238;stroke-linecap:round;stroke-linejoin:round;stroke-miterlimit:10;" d="
				M598.785,370.089v-10.08c0-1.058-0.857-1.915-1.915-1.915H492.698c-0.801,0-1.449-0.649-1.449-1.45l0,0
				c0-0.801,0.649-1.449,1.449-1.449h190.913c1.058,0,1.915,0.857,1.915,1.915v15.878c0,1.712-1.388,3.099-3.099,3.099H492.698
				c-0.801,0-1.449-0.649-1.449-1.45l0,0c0-0.801,0.649-1.45,1.449-1.45h102.988C597.398,373.188,598.785,371.8,598.785,370.089z"/>
		</g>
		<g>
			<g>
				<path style="fill:#FFFFFF;stroke:#263238;stroke-linecap:round;stroke-linejoin:round;stroke-miterlimit:10;" d="
					M496.148,404.55c1.035-3.478,4.843-17.856,0.137-27.063h180.5v27.063H496.148z"/>
				<g>
					
						<line style="fill:none;stroke:#263238;stroke-linecap:round;stroke-linejoin:round;stroke-miterlimit:10;" x1="597.742" y1="383.666" x2="571.763" y2="383.666"/>
					
						<line style="fill:none;stroke:#263238;stroke-linecap:round;stroke-linejoin:round;stroke-miterlimit:10;" x1="563.103" y1="391.932" x2="559.56" y2="391.932"/>
					
						<line style="fill:none;stroke:#263238;stroke-linecap:round;stroke-linejoin:round;stroke-miterlimit:10;" x1="598.136" y1="391.932" x2="569.008" y2="391.932"/>
					
						<line style="fill:none;stroke:#263238;stroke-linecap:round;stroke-linejoin:round;stroke-miterlimit:10;" x1="597.529" y1="400.495" x2="585.54" y2="400.495"/>
				</g>
			</g>
			<path style="fill:#263238;stroke:#263238;stroke-linecap:round;stroke-linejoin:round;stroke-miterlimit:10;" d="
				M598.785,401.818v-20.683c0-1.058-0.857-1.915-1.915-1.915H492.698c-0.801,0-1.449-0.649-1.449-1.449l0,0
				c0-0.801,0.649-1.45,1.449-1.45h190.913c1.058,0,1.915,0.858,1.915,1.915v26.482c0,1.711-1.388,3.099-3.099,3.099H492.698
				c-0.801,0-1.449-0.649-1.449-1.45l0,0c0-0.801,0.649-1.449,1.449-1.449h102.988C597.398,404.917,598.785,403.53,598.785,401.818z
				"/>
		</g>
		<g>
			<g>
				<path style="fill:#FFFFFF;stroke:#263238;stroke-linecap:round;stroke-linejoin:round;stroke-miterlimit:10;" d="
					M496.148,319.966c1.035-3.478,4.843-17.856,0.137-27.063h180.5v27.063H496.148z"/>
				<g>
					
						<line style="fill:none;stroke:#263238;stroke-linecap:round;stroke-linejoin:round;stroke-miterlimit:10;" x1="598.195" y1="298.962" x2="572.215" y2="298.962"/>
					
						<line style="fill:none;stroke:#263238;stroke-linecap:round;stroke-linejoin:round;stroke-miterlimit:10;" x1="563.555" y1="307.228" x2="560.013" y2="307.228"/>
					
						<line style="fill:none;stroke:#263238;stroke-linecap:round;stroke-linejoin:round;stroke-miterlimit:10;" x1="598.588" y1="307.228" x2="569.46" y2="307.228"/>
					
						<line style="fill:none;stroke:#263238;stroke-linecap:round;stroke-linejoin:round;stroke-miterlimit:10;" x1="597.982" y1="315.792" x2="585.992" y2="315.792"/>
				</g>
			</g>
			<path style="fill:#263238;stroke:#263238;stroke-linecap:round;stroke-linejoin:round;stroke-miterlimit:10;" d="
				M598.785,317.233V296.55c0-1.058-0.857-1.915-1.915-1.915H492.698c-0.801,0-1.449-0.649-1.449-1.449l0,0
				c0-0.801,0.649-1.45,1.449-1.45h190.913c1.058,0,1.915,0.857,1.915,1.915v26.482c0,1.712-1.388,3.099-3.099,3.099H492.698
				c-0.801,0-1.449-0.649-1.449-1.45l0,0c0-0.801,0.649-1.449,1.449-1.449h102.988C597.398,320.333,598.785,318.945,598.785,317.233
				z"/>
		</g>
	</g>
</g>
<g id="Plant">
	<g>
		<g>
			<path style="fill:#92E3A9;stroke:#263238;stroke-linecap:round;stroke-linejoin:round;stroke-miterlimit:10;" d="M70.053,139.886
				c0,0-4.454,12.25-13.92,13.92c-9.465,1.671-26.17-16.704-15.59-26.17C51.122,118.171,65.599,133.204,70.053,139.886z"/>
			<path style="fill:#92E3A9;stroke:#263238;stroke-linecap:round;stroke-linejoin:round;stroke-miterlimit:10;" d="M84.53,79.752
				c0,0-13.92,33.965-8.352,50.669c5.568,16.704,40.09,28.954,50.112,7.239c10.022-21.715-12.25-52.339-20.602-59.021
				C97.337,71.956,87.314,74.183,84.53,79.752z"/>
			<path style="fill:#92E3A9;stroke:#263238;stroke-linecap:round;stroke-linejoin:round;stroke-miterlimit:10;" d="M165.823,94.228
				c0,0-23.943,21.715-26.726,43.43c-2.784,21.715,13.363,29.51,30.067,26.726c16.704-2.784,25.056-45.101,20.045-64.589
				C184.197,80.308,165.823,94.228,165.823,94.228z"/>
			<g>
				<path style="fill:#92E3A9;stroke:#263238;stroke-linecap:round;stroke-linejoin:round;stroke-miterlimit:10;" d="
					M170.277,214.497c0,0-26.727,1.114-27.84,13.92c-1.113,12.807,11.693,15.59,24.499,4.454
					C179.743,221.736,181.413,215.054,170.277,214.497z"/>
				<path style="fill:none;stroke:#263238;stroke-miterlimit:10;" d="M142.88,231.469c0,0,21.063-9.636,30.549-11.31"/>
			</g>
			<g>
				<path style="fill:#92E3A9;stroke:#263238;stroke-linecap:round;stroke-linejoin:round;stroke-miterlimit:10;" d="
					M176.235,298.294c0,0-19.632-18.17-29.499-9.931c-9.868,8.238-2.814,19.284,14.112,20.515
					C177.775,310.11,183.691,306.584,176.235,298.294z"/>
				<path style="fill:none;stroke:#263238;stroke-miterlimit:10;" d="M144.883,290.828c0,0,21.684,8.145,29.558,13.692"/>
			</g>
			<g>
				<path style="fill:#92E3A9;stroke:#263238;stroke-linecap:round;stroke-linejoin:round;stroke-miterlimit:10;" d="M72.68,292.943
					c0,0,27.062-25.047,40.664-13.69c13.603,11.357,3.879,26.582-19.454,28.28C70.558,309.232,62.402,304.371,72.68,292.943z"/>
				<path style="fill:none;stroke:#263238;stroke-miterlimit:10;" d="M115.898,282.652c0,0-29.891,11.228-40.746,18.874"/>
			</g>
			<path style="fill:#92E3A9;stroke:#263238;stroke-linecap:round;stroke-linejoin:round;stroke-miterlimit:10;" d="
				M104.018,241.224c0,0-2.784,13.363-12.806,18.374c-10.023,5.011-27.84-5.568-18.375-21.715
				C82.303,221.736,99.007,234.542,104.018,241.224z"/>
			<path style="fill:#92E3A9;stroke:#263238;stroke-linecap:round;stroke-linejoin:round;stroke-miterlimit:10;" d="M80.633,199.464
				c0,0-5.011-11.136-24.499-3.898C36.645,202.804,28.85,213.94,41.1,217.838C53.349,221.736,80.633,199.464,80.633,199.464z"/>
			<path style="fill:none;stroke:#263238;stroke-miterlimit:10;" d="M76.901,198.956c0,0-20.645,2.232-31.804,11.717"/>
			<path style="fill:#92E3A9;stroke:#263238;stroke-linecap:round;stroke-linejoin:round;stroke-miterlimit:10;" d="M136.313,65.831
				c0,0,3.341,7.795,10.023,6.125c6.681-1.67,8.352-11.693,18.931-8.909c10.579,2.784,19.488,15.034,19.488,9.466
				c0-5.568-13.363-20.045-28.397-20.045C141.324,52.468,136.869,58.593,136.313,65.831z"/>
			<path style="fill:none;stroke:#263238;stroke-miterlimit:10;" d="M80.633,199.464c0,0,23.975-4.602,33.959,22.022
				c0.979,2.612,1.807,5.344,2.502,8.148"/>
			<path style="fill:#92E3A9;stroke:#263238;stroke-linecap:round;stroke-linejoin:round;stroke-miterlimit:10;" d="
				M180.693,173.672c0,0,5.011-11.136,24.499-3.898c19.488,7.238,27.283,18.375,15.033,22.272
				C207.976,195.944,180.693,173.672,180.693,173.672z"/>
			<path style="fill:none;stroke:#263238;stroke-miterlimit:10;" d="M185.146,174.406c0,0,20.086-1.116,29.572,10.601"/>
			<path style="fill:none;stroke:#263238;stroke-miterlimit:10;" d="M180.693,173.672c0,0-7.947-1.526-16.596,2.261"/>
			<path style="fill:none;stroke:#263238;stroke-miterlimit:10;" d="M93.413,153.697c-11.752-12-23.36-13.811-23.36-13.811
				s-17.145-4.537-23.84,1.6"/>
			<g>
				<line style="fill:none;stroke:#263238;stroke-miterlimit:10;" x1="95.798" y1="92.018" x2="94.756" y2="87.364"/>
				<path style="fill:none;stroke:#263238;stroke-miterlimit:10;" d="M122.912,338.173c0,0,2.496-95.888,0-125.008
					c-2.496-29.12-14.144-63.232-14.144-63.232L96.903,96.949"/>
				<line style="fill:none;stroke:#263238;stroke-miterlimit:10;" x1="172.399" y1="112.605" x2="174.544" y2="108.008"/>
				<path style="fill:none;stroke:#263238;stroke-miterlimit:10;" d="M128.736,338.067c0,0,0.832-87.463,4.16-112.422
					c3.328-24.96,16.64-64.064,16.64-64.064l20.429-43.762"/>
				<path style="fill:none;stroke:#263238;stroke-miterlimit:10;" d="M142.88,231.469c0,0-5.824,50.143-9.152,106.719"/>
				<path style="fill:none;stroke:#263238;stroke-miterlimit:10;" d="M114.592,338.067c0,0,1.664-79.974-1.664-90.79
					c-3.328-10.816-8.91-6.053-8.91-6.053s-15.4,1.811-20.979,10.739"/>
				<path style="fill:none;stroke:#263238;stroke-miterlimit:10;" d="M118.415,235.863c4.353,24.39,0.337,102.287,0.337,102.287"/>
				<path style="fill:none;stroke:#263238;stroke-miterlimit:10;" d="M159.379,178.548c-4.819,3.298-9.449,8.621-12.646,17.145
					c-9.984,26.624-8.845,142.495-8.845,142.495"/>
				<path style="fill:none;stroke:#263238;stroke-miterlimit:10;" d="M96.311,156.871c5.201,6.107,10.244,14.365,14.121,25.51
					c13.312,38.272,18.304,137.382,15.808,155.686"/>
				<path style="fill:none;stroke:#263238;stroke-miterlimit:10;" d="M130.12,192.688c-0.81,48.302-1.384,145.379-1.384,145.379"/>
			</g>
			<path style="fill:none;stroke:#263238;stroke-miterlimit:10;" d="M130.222,186.678c0.549-31.939,1.196-63.198,1.842-80.009
				c1.664-43.264,4.249-40.838,4.249-40.838s3.08-9.714,20.377-8.598"/>
			<g>
				<path style="fill:#92E3A9;stroke:#263238;stroke-linecap:round;stroke-linejoin:round;stroke-miterlimit:10;" d="
					M108.915,223.152c0,0-13.92-12.413-8.352-18.518c5.568-6.105,40.09-10.582,50.112-2.645
					c10.023,7.936-12.25,19.128-20.602,21.571C121.722,226.001,111.699,225.187,108.915,223.152z"/>
				<path style="fill:none;stroke:#263238;stroke-miterlimit:10;" d="M121.77,212.988c-0.194,1.257-0.309,2.506-0.309,3.706"/>
				<path style="fill:none;stroke:#263238;stroke-miterlimit:10;" d="M126.556,198.496c0,0-2.071,4.143-3.573,9.221"/>
			</g>
			<g>
				<path style="fill:#92E3A9;stroke:#263238;stroke-linecap:round;stroke-linejoin:round;stroke-miterlimit:10;" d="
					M108.915,304.314c0,0-13.92-12.413-8.352-18.518c5.568-6.105,40.09-10.582,50.112-2.645
					c10.023,7.936-12.25,19.129-20.602,21.571C121.722,307.163,111.699,306.349,108.915,304.314z"/>
				<path style="fill:none;stroke:#263238;stroke-miterlimit:10;" d="M126.556,279.658c0,0-5.095,10.19-5.095,18.198"/>
			</g>
			<g>
				<path style="fill:#92E3A9;stroke:#263238;stroke-linecap:round;stroke-linejoin:round;stroke-miterlimit:10;" d="
					M119.278,269.988c0,0-9.451-8.428-5.67-12.573c3.78-4.145,27.219-7.185,34.023-1.796c6.805,5.389-8.317,12.987-13.987,14.645
					C127.973,271.923,121.168,271.37,119.278,269.988z"/>
				<path style="fill:none;stroke:#263238;stroke-miterlimit:10;" d="M131.255,253.249c0,0-3.459,6.919-3.459,12.355"/>
			</g>
		</g>
		
			<rect x="106.204" y="324.262" style="fill:#263238;stroke:#263238;stroke-linecap:round;stroke-linejoin:round;stroke-miterlimit:10;" width="37.681" height="83.554"/>
	</g>
</g>
<g id="Cat_3">
	<g>
		<path style="fill:#263238;stroke:#263238;stroke-linecap:round;stroke-linejoin:round;stroke-miterlimit:10;" d="M517.349,362.259
			c0,0,15.349,11.086,37.094,0c21.745-11.086,11.086-37.947-0.853-52.87c-11.938-14.923-17.908-30.699-14.07-47.327
			c3.837-16.628,22.598-18.334,32.404-16.202c9.806,2.132,20.466,8.527,18.334,21.745s-12.791,8.954-20.466,6.396
			c-7.675-2.558-15.776-2.558-15.776,5.969c0,8.527,17.055,25.582,21.745,44.769s1.706,37.521-14.497,48.606
			c-16.202,11.086-34.962,6.822-46.474-2.132C503.278,362.259,517.349,362.259,517.349,362.259z"/>
		<path style="fill:#263238;stroke:#263238;stroke-linecap:round;stroke-linejoin:round;stroke-miterlimit:10;" d="M438.386,155.871
			l-35.098,5.18c0,0-11.142-10.093-20.56-13.27c-9.418-3.177-16.224-11.016-18.218-4.959c-1.994,6.057,0.094,26.999,2.629,31.219
			c2.535,4.22,11.483,10.109,11.483,10.109s-6.63,25.556-1.703,36.14c3.761,8.079,13.886,9.88,13.886,9.88
			s-12.208,34.278-12.944,57.138s-0.728,37.211-0.728,37.211s-18.286-10.771-30.228,3.359s-2.353,35.426,14.878,46.831
			c17.231,11.405,29.962,16.789,29.962,16.789s-21.672,3.079-24.737,10.11c-3.065,7.031,10.055,11.408,23.886,7.96
			c13.831-3.449,32.174-8.393,44.496-8.838c12.322-0.444,17.793-0.528,34.616,5.048c16.822,5.577,24.439,10.719,34.796,8.474
			c10.357-2.246,4.686-12.422-0.268-16.073c-4.953-3.65-16.919-3.531-16.919-3.531s23.991-8.779,34.894-22.616
			c10.903-13.838,21.871-29.039,8.811-41.956c-13.059-12.917-27.813-4.386-27.813-4.386s-3.298-38.768-16.317-67.059
			c-13.018-28.291-14.627-30.417-14.627-30.417s16.13-15.983,13.949-27.704c-2.181-11.721-14.775-34.525-14.775-34.525
			s4.348-5.262,2.945-18.996c-1.403-13.734-7.383-24.609-7.383-24.609s-3.004-1.508-5.211,1.805
			c-2.206,3.313-11.067,10.071-15.48,16.697C442.197,147.508,438.386,155.871,438.386,155.871z"/>
		<g>
			<path style="fill:#FFFFFF;stroke:#263238;stroke-linecap:round;stroke-linejoin:round;stroke-miterlimit:10;" d="M504.533,398.18
				c-2.655-1.957-7.325-2.83-11.087-3.219c-4.463,0.791-9.959,2.607-13.465,6.75c-1.934,2.286-2.651,4.571-2.609,6.668
				c11.931,4.423,18.722,7.762,27.429,5.874C515.158,412.007,509.487,401.831,504.533,398.18z"/>
			<path style="fill:#FFFFFF;stroke:#263238;stroke-linecap:round;stroke-linejoin:round;stroke-miterlimit:10;" d="M386.425,392.47
				c-6.625,1.399-17.331,4.352-19.417,9.139c-3.065,7.031,10.055,11.408,23.886,7.96c4.563-1.138,9.619-2.437,14.786-3.685
				C400.931,399.386,390.093,394.12,386.425,392.47z"/>
		</g>
		<path style="fill:#FFFFFF;stroke:#263238;stroke-linecap:round;stroke-linejoin:round;stroke-miterlimit:10;" d="M448.478,196.105
			c-12.791-6.375-28.027-4.072-38.199,5.967c-1.69,1.668-3.357,3.601-4.938,5.84c-10.338,14.645-10.769,32.306-9.476,38.767
			c1.292,6.461,10.769,29.721,14.645,42.644c3.877,12.922,5.6,53.412,4.738,61.596c-0.861,8.184-9.476-0.862-20.676-3.446
			c-11.199-2.584-23.498-2.324-15.745,12.752c7.753,15.076,37.282,31.184,49.773,32.907c12.492,1.723,33.167,1.292,48.243-5.6
			c15.076-6.892,24.553-24.983,23.691-32.737c-0.862-7.753-3.877-6.892-12.061-7.753c-8.184-0.861-25.845-37.044-27.568-52.551
			c-1.723-15.507,8.615-35.321,7.323-54.274C467.215,225.327,466.338,205.006,448.478,196.105z"/>
		<g>
			<g>
				<path style="fill:#92E3A9;stroke:#263238;stroke-linecap:round;stroke-linejoin:round;stroke-miterlimit:10;" d="
					M431.792,195.777c0,0-6.49-0.406-7.478,2.193c-0.988,2.599,3.931,4.916,6.375,4.358c2.444-0.558,6.031-2.169,5.782-4.643
					C436.223,195.21,431.792,195.777,431.792,195.777z"/>
				<path style="fill:none;stroke:#263238;stroke-linecap:round;stroke-linejoin:round;stroke-miterlimit:10;" d="M414.321,203.118
					c0,0,1.014,7.668,6.399,8.097c5.385,0.43,9.203-3.826,9.97-8.887c0,0,5.654,7.316,10.173,6.376
					c4.519-0.94,5.716-8.344,5.739-10.532"/>
			</g>
			<path style="fill:none;stroke:#263238;stroke-linecap:round;stroke-linejoin:round;stroke-miterlimit:10;" d="M424.066,220.461
				c0,0,1.724,6.915,9.582,6.944c7.858,0.029,9.607-8.09,10.013-9.438"/>
			<path style="fill:#FFFFFF;stroke:#263238;stroke-linecap:round;stroke-linejoin:round;stroke-miterlimit:10;" d="
				M418.698,185.742c0.717,2.343,0.057,4.623-1.476,5.092c-1.532,0.469-3.356-1.051-4.073-3.394
				c-0.717-2.343-0.057-4.623,1.476-5.092C416.157,181.879,417.981,183.398,418.698,185.742z"/>
			<path style="fill:#FFFFFF;stroke:#263238;stroke-linecap:round;stroke-linejoin:round;stroke-miterlimit:10;" d="M436.987,182.99
				c-0.567,2.384,0.237,4.617,1.796,4.988c1.559,0.371,3.282-1.262,3.849-3.646c0.567-2.384-0.237-4.617-1.796-4.988
				C439.277,178.974,437.554,180.606,436.987,182.99z"/>
			<path style="fill:none;stroke:#FFFFFF;stroke-miterlimit:10;" d="M403.038,180.858c0,0,4.429-6.967,12.644-7.263"/>
			<path style="fill:none;stroke:#FFFFFF;stroke-miterlimit:10;" d="M433.881,171.719c0,0,8.035-3.722,12.779,4.361"/>
		</g>
		<path style="fill:#D6D6D6;stroke:#263238;stroke-linecap:round;stroke-linejoin:round;stroke-miterlimit:10;" d="M365.359,141.295
			c-0.34,0.356-0.626,0.85-0.849,1.527c-1.994,6.057,0.094,26.999,2.629,31.219c2.535,4.22,11.483,10.109,11.483,10.109
			c2.419-0.569,16.346-6.064,16.049-14.279c-0.296-8.215-9.521-15.484-15.546-18.159c-6.025-2.676-12.474-10.839-12.474-10.839
			L365.359,141.295z"/>
		<path style="fill:#D6D6D6;stroke:#263238;stroke-linecap:round;stroke-linejoin:round;stroke-miterlimit:10;" d="M471.526,163.242
			c0.794-0.961,1.992-3.728,3.233-6.982c0.257-2.528,0.302-5.585-0.075-9.271c-1.403-13.734-7.383-24.609-7.383-24.609
			s-3.004-1.508-5.211,1.805c-0.469,0.704-1.251,1.573-2.216,2.554l0.366,0.434c0,0-12.296,21.631-11.53,27.134
			c0.766,5.503,6.401,9.186,12.49,10.498C467.29,166.117,469.352,165.873,471.526,163.242z"/>
		<g>
			<path style="fill:#263238;stroke:#263238;stroke-linecap:round;stroke-linejoin:round;stroke-miterlimit:10;" d="
				M388.478,252.508c0,0-9.175,17.939-10.825,34.98c-1.65,17.041,20.434,84.66,22.652,94.938c2.218,10.278,4.47,18.509,4.47,18.509
				s-5.847,2.633-6.274,7.747c-0.427,5.113,3.282,7.906,13.878,7.059c10.597-0.847,13.742-5.232,14.146-8.981
				c0.404-3.748-3.832-36.249-3.439-59.797c0.393-23.548-7.705-49.628-15.293-65.457c-7.587-15.83-13.252-24.117-13.252-24.117"/>
			<path style="fill:#FFFFFF;stroke:#263238;stroke-linecap:round;stroke-linejoin:round;stroke-miterlimit:10;" d="
				M412.379,415.741c10.597-0.847,13.742-5.232,14.146-8.981c0.131-1.218-0.229-5.487-0.76-11.486c-7.96-2.32-18.151-0.084-22.207,1
				c0.734,2.895,1.216,4.661,1.216,4.661s-5.847,2.633-6.274,7.747C398.074,413.796,401.783,416.589,412.379,415.741z"/>
		</g>
		<g>
			<path style="fill:#263238;stroke:#263238;stroke-linecap:round;stroke-linejoin:round;stroke-miterlimit:10;" d="
				M483.388,254.093c0,0,8.571,18.236,9.651,35.322c1.08,17.087-23.249,83.93-25.809,94.129c-2.56,10.198-5.086,18.349-5.086,18.349
				s5.756,2.827,6.012,7.952c0.256,5.125-3.544,7.792-14.106,6.592s-13.56-5.688-13.838-9.448
				c-0.279-3.76,5.041-36.101,5.434-59.649c0.393-23.548,9.358-49.343,17.47-64.91c8.112-15.568,14.05-23.661,14.05-23.661"/>
			<path style="fill:#FFFFFF;stroke:#263238;stroke-linecap:round;stroke-linejoin:round;stroke-miterlimit:10;" d="M454.05,416.437
				c-10.563-1.201-13.56-5.688-13.838-9.448c-0.091-1.222,0.412-5.476,1.143-11.454c8.033-2.053,18.143,0.522,22.161,1.741
				c-0.83,2.869-1.371,4.617-1.371,4.617s5.756,2.827,6.012,7.952C468.412,414.97,464.612,417.638,454.05,416.437z"/>
		</g>
		<path style="fill:none;stroke:#263238;stroke-linecap:round;stroke-linejoin:round;stroke-miterlimit:10;" d="M390.805,230.17
			c0,0,5.364,2.846,17.756,3.362"/>
		<path style="fill:none;stroke:#263238;stroke-linecap:round;stroke-linejoin:round;stroke-miterlimit:10;" d="M472.564,228.214
			c0,0-11.341,6.609-18.569,6.35"/>
	</g>
</g>
<g id="Cat_1">
	<g>
		<path style="fill:#263238;" d="M314.265,313.324c0,0-4.086,71.404-3.77,76.137c0.315,4.733,12.306,6.942,9.466,13.883
			c-2.84,6.942-8.204,4.102-11.044,3.471c-2.84-0.631-7.573-5.048-8.835-9.15c-1.262-4.102-8.519-66.893-8.519-66.893
			L314.265,313.324z"/>
		<path style="fill:#92E3A9;stroke:#263238;stroke-linecap:round;stroke-linejoin:round;stroke-miterlimit:10;" d="M191.223,384.728
			c0,0-5.68,15.777-20.825,18.301c-15.146,2.524-29.344-9.782-56.165-0.316c-26.82,9.466-19.247,36.917-12.937,45.752
			c6.311,8.835,22.718,15.777,31.553,6.942s-4.417-19.879-5.995-28.714c-1.578-8.835,12.306-15.461,22.403-14.514
			c10.097,0.947,27.321-0.303,38.495-10.728c6.859-6.4,7.888-13.568,7.888-13.568L191.223,384.728z"/>
		<path style="fill:#FFFFFF;stroke:#263238;stroke-linecap:round;stroke-linejoin:round;stroke-miterlimit:10;" d="M289.394,226.276
			c0,0-7.938,22.225-19.844,34.396c-11.906,12.171-39.952,18.521-53.975,23.548c-14.023,5.027-23.813,12.436-34.396,37.306
			c-10.583,24.871-0.264,48.684,4.498,57.944c4.763,9.26,10.319,15.346,25.4,21.167c15.081,5.821,20.637,8.996,43.127,9.525
			c22.49,0.529,29.633-2.117,30.692-7.144c1.058-5.027-1.852-7.144-4.233-7.938c-2.381-0.794-8.467-1.058-8.467-1.058
			s20.638-17.727,20.373-33.073c-0.265-15.346-0.529-16.933-0.529-16.933s20.108-20.108,31.221-28.046
			c11.113-7.938,18.521-23.019,14.552-43.127c-2.131-10.797-7.408-19.579-11.112-26.988c-3.704-7.408-3.44-18.256-3.44-18.256
			L289.394,226.276z"/>
		<path style="fill:#FFFFFF;stroke:#263238;stroke-linecap:round;stroke-linejoin:round;stroke-miterlimit:10;" d="M212.929,360.156
			c0,0,19.05-24.871,42.598-31.75s34.925,14.023,34.925,14.023"/>
		<g>
			<path style="fill:#FFFFFF;stroke:#263238;stroke-linecap:round;stroke-linejoin:round;stroke-miterlimit:10;" d="
				M273.254,299.566c0,0,11.113,21.431,10.848,33.867c-0.265,12.435,4.498,41.804,5.292,52.917
				c0.794,11.112,0.794,15.61,4.763,19.579c3.969,3.969,13.494,3.44,16.669,1.852c3.175-1.588,3.44-5.556,1.058-8.731
				c-2.381-3.175-6.615-5.821-6.615-5.821s-0.529-21.96-0.529-31.486c0-9.525,5.027-32.808,9.525-48.419
				c4.498-15.611,3.969-29.633,2.646-35.19c-1.323-5.556-10.319-12.7-10.319-12.7"/>
			<path style="fill:#92E3A9;stroke:#263238;stroke-linecap:round;stroke-linejoin:round;stroke-miterlimit:10;" d="
				M305.269,393.229c0,0-0.081-3.356-0.179-8.007l-15.424,5.026c0.585,8.339,1.022,12.213,4.491,15.681
				c3.969,3.969,13.494,3.44,16.669,1.852c3.175-1.588,3.44-5.556,1.058-8.731C309.502,395.875,305.269,393.229,305.269,393.229z"/>
		</g>
		<path style="fill:none;stroke:#263238;stroke-linecap:round;stroke-linejoin:round;stroke-miterlimit:10;" d="M272.196,394.022
			c0,0-21.431,8.996-35.719,9.79"/>
		<path style="fill:#92E3A9;stroke:#263238;stroke-linecap:round;stroke-linejoin:round;stroke-miterlimit:10;" d="M210.812,347.985
			c16.669-3.704,16.669-16.669,17.463-20.638c0.794-3.969,9.79-5.292,21.167-6.085c11.377-0.794,20.373-2.381,21.696-7.673
			c1.323-5.292-5.292-23.813,0.529-21.696c5.821,2.117,12.171,18.256,23.283,13.758c11.113-4.498,5.556-24.606-1.323-34.925
			c-6.879-10.319-10.319-28.84-10.319-28.84l-0.723-0.297c-3.36,6.48-7.816,13.747-13.035,19.082
			c-11.906,12.171-39.952,18.521-53.975,23.548c-14.023,5.027-23.813,12.435-34.396,37.306
			c-10.583,24.871-0.264,48.684,4.498,57.944c4.763,9.26,10.319,15.346,25.4,21.167c1.259,0.486,2.448,0.952,3.59,1.401
			c9.822-3.939,20.962-10.753,28.425-18.864c12.171-13.229,4.233-29.898-17.462-18.785s-32.544,20.638-36.513,14.552
			c-3.969-6.085,0.529-6.35,2.91-12.171c2.381-5.821-4.498-26.723-4.498-26.723S194.144,351.689,210.812,347.985z"/>
		<g>
			<path style="fill:#92E3A9;stroke:#263238;stroke-linecap:round;stroke-linejoin:round;stroke-miterlimit:10;" d="M322.5,165.641
				h-23.939c0,0-18.964-5.285-34.198-4.974c-15.234,0.311-21.762,2.176-20.208,7.15c1.554,4.974,8.705,15.855,13.99,18.343
				c5.285,2.487,8.705,4.352,8.705,4.352s-12.436,11.192-8.083,19.586c4.352,8.394,8.705,13.057,24.249,18.964
				c15.544,5.907,22.695,6.529,22.695,6.529s3.731,4.042,10.259,2.487c6.529-1.554,9.638-5.285,9.638-5.285
				s21.141-4.974,31.089-14.612c9.948-9.638,11.503-9.638,6.529-18.342c-4.974-8.705-8.705-9.949-8.705-9.949
				s14.301-10.259,17.099-17.721c1.485-3.961,2.62-7.134,3.358-9.239c0.552-1.573-0.38-3.273-2.003-3.653
				c-5.72-1.339-18.582-3.747-29.335-1.409C329.34,160.978,322.5,165.641,322.5,165.641z"/>
			<path style="fill:#FFFFFF;stroke:#263238;stroke-linecap:round;stroke-linejoin:round;stroke-miterlimit:10;" d="
				M358.411,216.536c-0.811-0.618-1.763-1.176-2.883-1.609c-5.875-2.274-16.867,4.169-25.016,2.843
				c-8.149-1.327-9.286-11.371-12.129-17.436c-2.843-6.064-6.254-7.581-10.423,1.516c-4.169,9.097-4.738,14.403-10.423,16.678
				c-5.686,2.274-23.121-2.464-29.565-0.379c-1.256,0.406-1.93,0.943-2.211,1.542c3.636,3.292,8.774,6.148,17.257,9.372
				c15.544,5.907,22.695,6.529,22.695,6.529s3.731,4.042,10.259,2.487c6.529-1.554,9.638-5.285,9.638-5.285
				s21.141-4.974,31.089-14.612C357.301,217.598,357.869,217.053,358.411,216.536z"/>
			<path style="fill:#D6D6D6;stroke:#263238;stroke-linecap:round;stroke-linejoin:round;stroke-miterlimit:10;" d="
				M290.479,170.615c0,0-9.638-6.529-22.073-7.461c-12.436-0.933-20.208,0.311-19.586,4.974c0.622,4.663,4.663,9.016,11.503,13.99
				c6.84,4.974,10.881,5.907,14.612,4.663C278.665,185.538,291.1,177.144,290.479,170.615z"/>
			<path style="fill:#D6D6D6;stroke:#263238;stroke-linecap:round;stroke-linejoin:round;stroke-miterlimit:10;" d="
				M328.718,172.792c0,0-0.622,5.285,6.84,11.503c7.461,6.218,18.032,3.109,18.032,3.109s9.638-7.772,13.057-12.747
				c3.42-4.974,7.15-11.814,5.596-13.057c-1.555-1.243-14.301-0.933-23.006,0.933S331.827,168.75,328.718,172.792z"/>
			<path style="fill:#92E3A9;stroke:#263238;stroke-linecap:round;stroke-linejoin:round;stroke-miterlimit:10;" d="M315.548,217.37
				c0,0-6.416-1.053-7.66,1.434c-1.244,2.487,3.42,5.285,5.907,4.974c2.487-0.311,6.218-1.554,6.218-4.042
				S315.548,217.37,315.548,217.37z"/>
			<path style="fill:none;stroke:#263238;stroke-linecap:round;stroke-linejoin:round;stroke-miterlimit:10;" d="M297.43,222.926
				c0,0,0.242,7.73,5.556,8.697c5.315,0.966,9.539-2.886,10.809-7.845c0,0,4.893,7.845,9.483,7.362
				c4.59-0.483,6.523-7.731,6.764-9.905"/>
			<path style="fill:#263238;stroke:#263238;stroke-linecap:round;stroke-linejoin:round;stroke-miterlimit:10;" d="
				M310.234,230.056c0,0,1.279,3.139,3.952,2.79c2.674-0.349,3.836-3.72,3.836-3.72l-4.227-5.349
				C313.795,223.778,312.559,228.545,310.234,230.056z"/>
			<path style="fill:#263238;" d="M298.43,213.252c-0.648,1.502-3.276,1.812-5.872,0.693c-2.595-1.119-4.174-3.244-3.527-4.745
				c0.648-1.502,3.277-1.812,5.872-0.693C297.499,209.626,299.078,211.751,298.43,213.252z"/>
			<path style="fill:#263238;" d="M327.048,213.742c0.642,1.488,3.265,1.788,5.858,0.67c2.594-1.118,4.176-3.232,3.535-4.72
				c-0.642-1.488-3.264-1.788-5.858-0.67C327.989,210.141,326.406,212.254,327.048,213.742z"/>
			<path style="fill:none;stroke:#263238;stroke-linecap:round;stroke-linejoin:round;stroke-miterlimit:10;" d="M282.374,202.229
				c0,0,4.169-6.444,13.835-5.686"/>
			<path style="fill:none;stroke:#263238;stroke-linecap:round;stroke-linejoin:round;stroke-miterlimit:10;" d="M323.879,196.165
				c0,0,10.802-3.032,15.351,2.653"/>
		</g>
	</g>
</g>
<g id="Cat_2">
	<g>
		<path style="fill:#9C9C9C;stroke:#263238;stroke-linecap:round;stroke-linejoin:round;stroke-miterlimit:10;" d="M331.621,439.839
			c0,0,15.955,20.608,53.626,17.949c37.671-2.659,49.858-38.557,51.631-48.307c1.773-9.75,8.642-26.813,0.443-46.091
			c-8.199-19.279-22.824-24.597-33.682-21.938c-10.858,2.659-12.631,9.75-6.426,11.966c6.205,2.216,13.074-1.33,25.483,5.983
			c12.409,7.313,11.523,30.801,10.636,36.12c-0.886,5.318-3.545,8.199-3.545,8.199s-1.33-2.438-7.534-7.977
			c-6.205-5.54-12.852-6.869-12.852-6.869s2.881-6.869-0.665-16.176c-3.546-9.307-7.977-9.75-8.642-5.761
			c-0.665,3.989,0.222,12.852,0.222,12.852s-8.642-9.307-15.29-3.545c-6.648,5.761-4.432,16.841-4.432,16.841
			s-6.426,1.108-12.631,1.994c-6.205,0.886-7.091-0.886-7.091-0.886s2.659-2.881,1.773-5.983s-3.102-3.767-3.102-3.767
			s5.983,1.33,7.977-0.886c1.994-2.216-0.886-4.875-5.762-5.318c-4.875-0.443-11.523,1.33-13.739,6.869
			c-2.216,5.54-0.886,11.08-0.886,11.08s1.994,7.756-4.432,21.051c-6.426,13.296-13.296,22.381-13.296,22.381L331.621,439.839z"/>
		<path style="fill:#FFFFFF;stroke:#263238;stroke-linecap:round;stroke-linejoin:round;stroke-miterlimit:10;" d="M403.639,341.452
			c-10.858,2.659-12.631,9.75-6.426,11.966c6.205,2.216,13.074-1.33,25.483,5.983c0.969,0.571,1.849,1.251,2.662,2.003
			c2.185-2.771,3.891-6.113,5.201-9.419C422.413,342.051,411.93,339.422,403.639,341.452z"/>
		<path style="fill:#FFFFFF;stroke:#263238;stroke-linecap:round;stroke-linejoin:round;stroke-miterlimit:10;" d="M347.307,403.054
			c0,0,10.216-0.958,19.475-3.193c9.259-2.235,16.601-6.066,26.498-6.066c9.897,0,21.709,5.427,20.752,13.409
			c-0.958,7.981-26.498,18.517-43.1,20.432c-16.601,1.916-28.048-5.157-28.231-10.4
			C342.518,411.993,347.307,403.054,347.307,403.054z"/>
		<path style="fill:#9C9C9C;stroke:#263238;stroke-linecap:round;stroke-linejoin:round;stroke-miterlimit:10;" d="M347.797,421.668
			c0,0,4.653-19.279,13.074-21.494c8.421-2.216,20.165,5.097,17.284,9.307s-11.523,1.551-11.523,1.551s10.193,19.279,6.648,26.37
			s-12.631,5.54-12.631,5.54"/>
		<path style="fill:#9C9C9C;stroke:#263238;stroke-linecap:round;stroke-linejoin:round;stroke-miterlimit:10;" d="M395.44,429.867
			c0,0-10.415-10.858-4.21-25.705c6.205-14.847,22.824-1.108,22.824-1.108s-9.085-20.386-1.33-20.83
			c7.756-0.443,12.852,21.716,10.415,31.466c-2.438,9.75-7.313,8.199-7.313,8.199"/>
		<g>
			<path style="fill:#9C9C9C;stroke:#263238;stroke-linecap:round;stroke-linejoin:round;stroke-miterlimit:10;" d="
				M283.979,402.913c0,0-1.239-17.161,1.592-17.692c2.831-0.531,10.615,5.838,11.323,7.077c0.708,1.238-7.961,7.785-9.023,9.023
				C286.81,402.559,284.333,404.506,283.979,402.913z"/>
			<path style="fill:#9C9C9C;stroke:#263238;stroke-linecap:round;stroke-linejoin:round;stroke-miterlimit:10;" d="M331.346,390.97
				c0,0-7.89-6.137-18.63-4.822c-10.74,1.315-26.082,7.671-30.466,17.753c-4.384,10.082-3.507,14.685-3.507,14.685
				s-14.027,11.836-17.315,14.247c-3.288,2.411-9.644,3.726,2.192,9.863c11.836,6.137,26.74,2.411,26.74,2.411l7.233-4.164
				c0,0,5.918,7.233,15.781,6.575c9.863-0.658,20.164-3.945,27.178-14.247c7.014-10.301,10.521-23.233,8.329-36.384
				S335.291,388.34,331.346,390.97z"/>
			<path style="fill:none;stroke:#263238;stroke-linecap:round;stroke-linejoin:round;stroke-miterlimit:10;" d="M306.37,397.481
				c0,0-2.603,0-2.603,7.086"/>
			<path style="fill:#263238;" d="M319.82,406.158c0,1.358-1.457,2.458-3.254,2.458c-1.797,0-3.254-1.101-3.254-2.458
				s1.457-2.459,3.254-2.459C318.363,403.7,319.82,404.8,319.82,406.158z"/>
			<path style="fill:#263238;" d="M328.377,392.525c-0.184,1.097-1.665,1.763-3.309,1.488c-1.643-0.276-2.826-1.389-2.642-2.486
				c0.184-1.097,1.666-1.763,3.309-1.488C327.379,390.315,328.561,391.428,328.377,392.525z"/>
			
				<line style="fill:none;stroke:#263238;stroke-linecap:round;stroke-linejoin:round;stroke-miterlimit:10;" x1="335.439" y1="388.948" x2="335.439" y2="383.742"/>
			
				<line style="fill:none;stroke:#263238;stroke-linecap:round;stroke-linejoin:round;stroke-miterlimit:10;" x1="339.199" y1="387.647" x2="341.513" y2="384.754"/>
			
				<line style="fill:none;stroke:#263238;stroke-linecap:round;stroke-linejoin:round;stroke-miterlimit:10;" x1="342.814" y1="388.37" x2="345.129" y2="385.622"/>
			<path style="fill:#D6D6D6;stroke:#263238;stroke-linecap:round;stroke-linejoin:round;stroke-miterlimit:10;" d="
				M290.359,445.107l7.233-4.164c0,0,2.663-8.661,0.187-13.438c-2.477-4.777-7.608-6.723-13.269-4.777
				c-5.661,1.946-14.154,5.661-17.515,7.608c-3.362,1.946-7.608,4.069-8.669,5.308c-0.176,0.206-0.697,0.372-1.392,0.549
				c-0.705,1.417,0.517,3.304,6.686,6.503C275.455,448.833,290.359,445.107,290.359,445.107z"/>
			<path style="fill:#FFFFFF;stroke:#263238;stroke-linecap:round;stroke-linejoin:round;stroke-miterlimit:10;" d="M348.88,396.888
				c-0.936-5.617-3.554-7.99-6.551-8.666c-4.894,1.287-9.688,3.956-13.145,9.071c0,0-13.296,14.182-15.512,25.926
				c-1.479,7.837,3.769,26.11,21.133,16.466c2.078-1.755,4.014-3.869,5.747-6.415C347.565,422.97,351.072,410.038,348.88,396.888z"
				/>
			<path style="fill:#92E3A9;stroke:#263238;stroke-linecap:round;stroke-linejoin:round;stroke-miterlimit:10;" d="
				M332.223,392.723c0,0-5.26,3.069-4.603,5.479c0.658,2.411,5.26,2.192,6.794-0.438
				C335.949,395.134,334.414,390.97,332.223,392.723z"/>
			<path style="fill:none;stroke:#263238;stroke-linecap:round;stroke-linejoin:round;stroke-miterlimit:10;" d="M334.414,397.764
				c0,0,2.849,1.973,2.63,5.041c-0.219,3.069-1.753,5.041-5.479,3.945"/>
			<path style="fill:none;stroke:#263238;stroke-linecap:round;stroke-linejoin:round;stroke-miterlimit:10;" d="M337.044,402.806
				c0,0,5.26-0.877,4.164-5.26"/>
			<path style="fill:#263238;stroke:#263238;stroke-linecap:round;stroke-linejoin:round;stroke-miterlimit:10;" d="
				M336.307,406.233c0,0-0.358,4.464,2.052,2.491c2.411-1.973,0.877-6.356,0.877-6.356l-1.833,0.797L336.307,406.233z"/>
			
				<line style="fill:none;stroke:#263238;stroke-linecap:round;stroke-linejoin:round;stroke-miterlimit:10;" x1="325.46" y1="408.617" x2="319.82" y2="414.98"/>
			
				<line style="fill:none;stroke:#263238;stroke-linecap:round;stroke-linejoin:round;stroke-miterlimit:10;" x1="327.196" y1="410.497" x2="325.026" y2="416.282"/>
			
				<line style="fill:none;stroke:#263238;stroke-linecap:round;stroke-linejoin:round;stroke-miterlimit:10;" x1="329.509" y1="411.654" x2="330.233" y2="416.426"/>
		</g>
	</g>
</g>
</svg>
